<svg width="14" height="16" viewBox="0 0 14 16" fill="none" xmlns="http://www.w3.org/2000/svg">
<path d="M1.5 1.5C1.23478 1.5 0.98043 1.60536 0.792893 1.79289C0.605357 1.98043 0.5 2.23478 0.5 2.5V3.5C0.5 3.76522 0.605357 4.01957 0.792893 4.20711C0.98043 4.39464 1.23478 4.5 1.5 4.5H2V13.5C2 14.0304 2.21071 14.5391 2.58579 14.9142C2.96086 15.2893 3.46957 15.5 4 15.5H10C10.5304 15.5 11.0391 15.2893 11.4142 14.9142C11.7893 14.5391 12 14.0304 12 13.5V4.5H12.5C12.7652 4.5 13.0196 4.39464 13.2071 4.20711C13.3946 4.01957 13.5 3.76522 13.5 3.5V2.5C13.5 2.23478 13.3946 1.98043 13.2071 1.79289C13.0196 1.60536 12.7652 1.5 12.5 1.5H9C9 1.23478 8.89464 0.98043 8.70711 0.792893C8.51957 0.605357 8.26522 0.5 8 0.5H6C5.73478 0.5 5.48043 0.605357 5.29289 0.792893C5.10536 0.98043 5 1.23478 5 1.5H1.5ZM4.5 5.5C4.63261 5.5 4.75979 5.55268 4.85355 5.64645C4.94732 5.74021 5 5.86739 5 6V13C5 13.1326 4.94732 13.2598 4.85355 13.3536C4.75979 13.4473 4.63261 13.5 4.5 13.5C4.36739 13.5 4.24021 13.4473 4.14645 13.3536C4.05268 13.2598 4 13.1326 4 13V6C4 5.86739 4.05268 5.74021 4.14645 5.64645C4.24021 5.55268 4.36739 5.5 4.5 5.5ZM7 5.5C7.13261 5.5 7.25979 5.55268 7.35355 5.64645C7.44732 5.74021 7.5 5.86739 7.5 6V13C7.5 13.1326 7.44732 13.2598 7.35355 13.3536C7.25979 13.4473 7.13261 13.5 7 13.5C6.86739 13.5 6.74021 13.4473 6.64645 13.3536C6.55268 13.2598 6.5 13.1326 6.5 13V6C6.5 5.86739 6.55268 5.74021 6.64645 5.64645C6.74021 5.55268 6.86739 5.5 7 5.5ZM10 6V13C10 13.1326 9.94732 13.2598 9.85355 13.3536C9.75979 13.4473 9.63261 13.5 9.5 13.5C9.36739 13.5 9.24021 13.4473 9.14645 13.3536C9.05268 13.2598 9 13.1326 9 13V6C9 5.86739 9.05268 5.74021 9.14645 5.64645C9.24021 5.55268 9.36739 5.5 9.5 5.5C9.63261 5.5 9.75979 5.55268 9.85355 5.64645C9.94732 5.74021 10 5.86739 10 6Z" fill="black"/>
</svg>
