<svg width="27" height="27" viewBox="0 0 27 27" fill="none" xmlns="http://www.w3.org/2000/svg">
<path d="M24.9462 1.72875C23.4525 0.234375 21.3425 0 18.8525 0H7.77813C5.3175 0 3.20812 0.234375 1.71375 1.72813C0.22 3.22188 0 5.31688 0 7.76375V18.8375C0 21.3425 0.22 23.4225 1.71375 24.9169C3.2075 26.4106 5.3175 26.645 7.8225 26.645H18.8525C21.3425 26.645 23.4525 26.4106 24.9462 24.9169C26.44 23.4231 26.66 21.3425 26.66 18.8375V7.8075C26.66 5.3025 26.4406 3.20813 24.9462 1.72875ZM13.33 21.9131C13.0233 21.9126 12.7292 21.7906 12.5123 21.5738C12.2953 21.3569 12.1732 21.063 12.1725 20.7563V14.4725H5.90375C5.25875 14.4725 4.74625 13.945 4.74625 13.33C4.74625 12.7144 5.25875 12.1581 5.90313 12.1581H12.1725V5.88813C12.1725 5.22938 12.685 4.71625 13.33 4.71625C13.9894 4.71625 14.4875 5.22875 14.4875 5.88813V12.1581H20.7712C21.4162 12.1581 21.9287 12.7144 21.9287 13.33C21.9287 13.945 21.4162 14.4725 20.7712 14.4725H14.4875V20.7569C14.4884 20.9091 14.4591 21.06 14.4012 21.2008C14.3434 21.3416 14.2581 21.4696 14.1505 21.5772C14.0428 21.6848 13.9148 21.77 13.774 21.8277C13.6331 21.8855 13.4822 21.9141 13.33 21.9131Z" fill="black"/>
</svg>
